<svg width="24" height="24" viewBox="0 0 128 128" fill="none" xmlns="http://www.w3.org/2000/svg">
  <g fill="#ffffff">
    <rect x="40" y="8" width="48" height="8"/>
    <rect x="24" y="16" width="80" height="8"/>
    <rect x="16" y="24" width="40" height="8"/>
    <rect x="72" y="24" width="40" height="8"/>
    <rect x="8" y="32" width="40" height="8"/>
    <rect x="80" y="32" width="40" height="8"/>
    <rect x="8" y="40" width="32" height="8"/>
    <rect x="88" y="40" width="32" height="8"/>
    <rect x="0" y="48" width="32" height="8"/>
    <rect x="96" y="48" width="32" height="8"/>
    <rect x="0" y="56" width="24" height="8"/>
    <rect x="104" y="56" width="24" height="8"/>
    <rect x="0" y="64" width="24" height="8"/>
    <rect x="104" y="64" width="24" height="8"/>
    <rect x="0" y="72" width="32" height="8"/>
    <rect x="96" y="72" width="32" height="8"/>
    <rect x="8" y="80" width="32" height="8"/>
    <rect x="88" y="80" width="32" height="8"/>
    <rect x="8" y="88" width="112" height="8"/>
    <rect x="16" y="96" width="96" height="8"/>
    <rect x="24" y="104" width="80" height="8"/>
    <rect x="40" y="112" width="48" height="8"/>
  </g>
</svg>
